# AST/ASF file generated using VICON BodyLanguage
# -----------------------------------------------
:version 1.10
:name VICON
:units
  mass 1.0
  length 0.45
  angle deg
:documentation
   .ast/.asf automatically generated from VICON data using
   VICON BodyBuilder and BodyLanguage model FoxedUp or BRILLIANT.MOD
:root
   order TX TY TZ RX RY RZ
   axis XYZ
   position 0 0 0  
   orientation 0 0 0 
:bonedata
  begin
     id 1 
     name lhipjoint
     direction 0.611823 -0.767273 0.19226 
     length 2.47422 
     axis 0 0 0  XYZ
  end
  begin
     id 2 
     name lfemur
     direction 0.34202 -0.939693 0  
     length 7.40835  
     axis 0 0 20  XYZ
    dof rx ry rz
    limits (-160.0 20.0)
           (-70.0 70.0)
           (-60.0 70.0)
  end
  begin
     id 3 
     name ltibia
     direction 0.34202 -0.939693 0   
     length 8.03679   
     axis 0 0 20   XYZ
    dof rx
    limits (-10.0 170.0)
  end
  begin
     id 4 
     name lfoot
     direction 0.0883598 -0.242766 0.966052   
     length 2.06694   
     axis -90 7.62852e-016 20   XYZ
    dof rx rz
    limits (-45.0 90.0)
           (-70.0 20.0)
  end
  begin
     id 5 
     name ltoes
     direction 1.53617e-011 -4.21699e-011 1   
     length 1.03711   
     axis -90 7.62852e-016 20   XYZ
    dof rx
    limits (-90.0 20.0)
  end
  begin
     id 6 
     name rhipjoint
     direction -0.590066 -0.783143 0.196236   
     length 2.42408  
     axis 0 0 0  XYZ 
  end
  begin
     id 7 
     name rfemur
     direction -0.34202 -0.939693 0   
     length 7.88987   
     axis 0 0 -20   XYZ
    dof rx ry rz
    limits (-160.0 20.0)
           (-70.0 70.0)
           (-70.0 60.0)
  end
  begin
     id 8 
     name rtibia
     direction -0.34202 -0.939693 0   
     length 7.87584   
     axis 0 0 -20   XYZ
    dof rx
    limits (-10.0 170.0)
 end
 begin
     id 9 
     name rfoot
     direction -0.130476 -0.358481 0.924374   
     length 2.21745  
     axis -90 -7.62852e-016 -20   XYZ
    dof rx rz
    limits (-45.0 90.0)
           (-20.0 70.0)
  end
  begin
     id 10 
     name rtoes
     direction 8.20695e-005 8.89091e-005 1   
     length 1.09536   
     axis -90 -7.62852e-016 -20   XYZ
    dof rx
    limits (-90.0 20.0)
  end
  begin
     id 11 
     name lowerback
     direction 0.00981224 0.999875 -0.0124197   
     length 1.94808   
     axis 0 0 0   XYZ
    dof rx ry rz
    limits (-20.0 45.0)
           (-30.0 30.0)
           (-30.0 30.0)
  end
  begin
     id 12 
     name upperback
     direction 0.038911 0.999194 0.00981686   
     length 1.94415   
     axis 0 0 0   XYZ
    dof rx ry rz
    limits (-20.0 45.0)
           (-30.0 30.0)
           (-30.0 30.0)
  end
  begin
     id 13 
     name thorax
     direction 0.0330692 0.999334 0.0154389   
     length 1.94117   
     axis 0 0 0   XYZ
    dof rx ry rz
    limits (-20.0 45.0)
           (-30.0 30.0)
           (-30.0 30.0)
  end
  begin
     id 14 
     name lowerneck
     direction -0.0374305 0.99415 0.10132   
     length 1.87291   
     axis 0 0 0   XYZ
    dof rx ry rz
    limits (-20.0 45.0)
           (-30.0 30.0)
           (-30.0 30.0)
  end
  begin
     id 15 
     name upperneck
     direction 0.0120692 0.985979 -0.166431   
     length 1.89248   
     axis 0 0 0   XYZ
    dof rx ry rz
    limits (-20.0 45.0)
           (-30.0 30.0)
           (-30.0 30.0)
  end
  begin
     id 16
     name head
     direction 0.00629908 0.997708 -0.06737  
     length 1.90559  
     axis 0 0 0   XYZ
    dof rx ry rz
    limits (-20.0 45.0)
           (-30.0 30.0)
           (-30.0 30.0)
  end
  begin
     id 17 
     name lclavicle
     direction 0.961536 0.27308 -0.0295863  
     length 3.52757  
     axis 0 0 0   XYZ
    dof ry rz
    limits (-20.0 10.0)
           (0.0 20.0)
  end
  begin
     id 18 
     name lhumerus
     direction 1 -4.48969e-011 2.61153e-029   
     length 5.14845   
     axis 180 -30 -90   XYZ
    dof rx ry rz
    limits (-60.0 90.0)
           (-90.0 90.0)
           (-90.0 90.0)
  end
  begin
     id 19
     name lradius
     direction 1 -4.4896e-011 -3.37549e-027   
     length 3.43674   
     axis 180 -30 -90   XYZ
    dof rx
    limits (-10.0 170.0)
  end
  begin
     id 20
     name lwrist
     direction 1 -4.48969e-011 2.56952e-028   
     length 1.71837   
     axis -5.12785e-016 90 90   XYZ
    dof ry
    limits (-180.0 0.0)
 end
  begin
     id 21 
     name lhand
     direction 1 -4.49094e-011 5.13905e-028   
     length 0.588709   
     axis -3.27915e-016 90 90   XYZ
    dof rx rz
    limits (-90.0 90.0)
           (-45.0 45.0)
  end
  begin
     id 22 
     name lfingers
     direction 1 -4.48821e-011 1.02781e-027   
     length 0.474633   
     axis -6.5583e-016 90 90   XYZ
    dof rx
    limits (0.0 90.0)
  end
  begin
     id 23
     name lthumb
     direction 0.707107 -6.34922e-011 0.707107   
     length 0.68148   
     axis -90 45 2.85299e-015   XYZ
    dof rx rz
    limits (-45.0 45.0)
           (-45.0 45.0)
  end
  begin
     id 24 
     name rclavicle
     direction -0.940964 0.333844 -0.0559866   
     length 3.55948  
     axis 0 0 0   XYZ 
    dof ry rz
    limits (-10.0 20.0)
           (-20.0 0.0)
  end
  begin
     id 25 
     name rhumerus
     direction -1 -4.48973e-011 3.15259e-027  
     length 5.42185   
     axis 180 30 90   XYZ
    dof rx ry rz
    limits (-90.0 60.0)
           (-90.0 90.0)
           (-90.0 90.0)
  end
  begin
     id 26 
     name rradius
     direction -1 -4.48954e-011 -2.56271e-027   
     length 3.51317   
     axis 180 30 90   XYZ
    dof rx
    limits (-10.0 170.0)
  end
  begin
     id 27 
     name rwrist
     direction -1 -4.48943e-011 2.56952e-028   
     length 1.75658   
     axis -5.12785e-016 -90 -90   XYZ
    dof ry
    limits (-180.0 0.0)
  end
  begin
     id 28
     name rhand
     direction -1 -4.4912e-011 5.13905e-028   
     length 0.663187   
     axis -3.27915e-016 -90 -90   XYZ
    dof rx rz
    limits (-90.0 90.0)
           (-45.0 45.0)
  end
  begin
     id 29
     name rfingers
     direction -1 -4.48914e-011 1.02781e-027   
     length 0.534679   
     axis -6.5583e-016 -90 -90   XYZ
    dof rx
    limits (0.0 90.0)
  end
  begin
     id 30
     name rthumb
     direction -0.707107 -6.35033e-011 0.707107   
     length 0.767695   
     axis -90 -45 -2.85299e-015   XYZ
    dof rx rz
    limits (-45.0 45.0)
           (-45.0 45.0)
  end
:hierarchy
  begin
    root lhipjoint rhipjoint lowerback
    lhipjoint lfemur
    lfemur ltibia
    ltibia lfoot
    lfoot ltoes
    rhipjoint rfemur
    rfemur rtibia
    rtibia rfoot
    rfoot rtoes
    lowerback upperback
    upperback thorax
    thorax lowerneck lclavicle rclavicle
    lowerneck upperneck
    upperneck head
    lclavicle lhumerus
    lhumerus lradius
    lradius lwrist
    lwrist lhand lthumb
    lhand lfingers
    rclavicle rhumerus
    rhumerus rradius
    rradius rwrist
    rwrist rhand rthumb
    rhand rfingers
  end

#!OML:ASF F:\VICON\USERDATA\INSTALL\Justin_a\Justin_a.ASF
:FULLY-SPECIFIED
:DEGREES
3876
root 12.2388 17.6596 -9.79726 -350.91 -132.267 363.243
lowerback 5.04905 1.94533 -1.02337
upperback 1.88176 2.48821 2.87607
thorax -1.06544 1.19688 3.38631
lowerneck -8.78137 5.10025 -0.960673
upperneck 40.0512 6.27545 -4.62107
head 15.8068 0.847478 -1.15706
rclavicle -4.57205e-015 3.97569e-015
rhumerus -35.8698 -2.70888 -83.3989
rradius 45.5728
rwrist -1.79594
rhand -38.2696 16.6922
rfingers 7.12502
rthumb -11.2993 -12.9834
lclavicle -4.57205e-015 3.97569e-015
lhumerus -35.7661 8.18532 83.0623
lradius 45.3964
lwrist 9.25577
lhand -13.4476 22.1303
lfingers 7.12502
lthumb 12.6617 51.7265
rfemur -18.6753 9.66407 19.0993
rtibia 39.3126
rfoot -33.0081 -3.44734
rtoes -10.2921
lfemur -37.398 -15.3797 -5.17448
ltibia 30.08
lfoot -8.00593 -31.9854
ltoes 10.7137
3877
root 12.3298 17.6576 -9.79201 -350.899 -131.161 363.256
lowerback 4.90734 1.98098 -0.888663
upperback 1.93562 2.53778 2.98529
thorax -0.933481 1.21822 3.42601
lowerneck -8.88424 5.02483 -1.18427
upperneck 39.9203 6.31766 -4.69469
head 15.7607 0.846164 -1.13154
rclavicle 1.08735e-013 -1.19271e-014
rhumerus -35.6456 -2.41826 -83.2775
rradius 45.5656
rwrist -1.97143
rhand -38.1297 16.3705
rfingers 7.12502
rthumb -11.1644 -13.3125
lclavicle 1.08735e-013 -1.19271e-014
lhumerus -35.7724 8.16342 83.249
lradius 45.7381
lwrist 9.16451
lhand -12.6434 21.5737
lfingers 7.12502
lthumb 13.4369 51.1203
rfemur -18.8273 9.32211 19.38
rtibia 39.3437
rfoot -32.7972 -3.54127
rtoes -9.25379
lfemur -37.6745 -15.3577 -5.05507
ltibia 29.4118
lfoot -7.35773 -32.2276
ltoes 9.32498
3878
root 12.4179 17.6639 -9.78078 -350.589 -130.034 362.852
lowerback 4.92824 1.9535 -0.872162
upperback 1.91537 2.50495 2.93013
thorax -0.960606 1.2038 3.36055
lowerneck -8.96903 5.02546 -1.18545
upperneck 39.891 6.41468 -4.79968
head 15.776 0.887736 -1.15559
rclavicle 2.98177e-014 1.19271e-014
rhumerus -35.6157 -2.11092 -83.2192
rradius 45.758
rwrist -1.66651
rhand -37.8296 15.5417
rfingers 7.12502
rthumb -10.8749 -14.1568
lclavicle 2.98177e-014 1.19271e-014
lhumerus -35.7952 8.58119 83.1218
lradius 45.8524
lwrist 8.63479
lhand -13.1372 22.4386
lfingers 7.12502
lthumb 12.9609 52.016
rfemur -19.0118 9.13371 19.2802
rtibia 39.4739
rfoot -32.4011 -3.09166
rtoes -6.41662
lfemur -37.8723 -15.3181 -5.31642
ltibia 28.7395
lfoot -5.89374 -32.2571
ltoes 9.38294
3879
root 12.498 17.6742 -9.7643 -350.468 -128.914 362.678
lowerback 4.93096 1.98093 -0.592124
upperback 1.89706 2.55459 2.92171
thorax -0.971652 1.22941 3.19066
lowerneck -9.02107 4.94107 -1.34994
upperneck 39.8355 6.37864 -4.78093
head 15.7511 0.868731 -1.11657
rclavicle -4.73108e-014 1.90833e-014
rhumerus -35.635 -1.90042 -83.0739
rradius 45.8619
rwrist -1.34757
rhand -37.7451 14.8268
rfingers 7.12502
rthumb -10.7934 -14.8759
lclavicle -4.73108e-014 1.90833e-014
lhumerus -35.7381 8.76113 83.2406
lradius 45.8858
lwrist 8.45814
lhand -17.3348 25.9772
lfingers 7.12502
lthumb 8.91232 55.769
rfemur -19.2165 8.5785 19.3611
rtibia 39.574
rfoot -32.1463 -2.94982
rtoes -5.48113
lfemur -38.015 -15.1721 -5.49904
ltibia 28.1437
lfoot -4.37106 -32.0517
ltoes 9.1691
3880
root 12.5758 17.6843 -9.74763 -350.44 -127.775 362.554
lowerback 4.95121 1.97241 -0.369828
upperback 1.89465 2.55221 2.98136
thorax -0.978265 1.2276 3.12671
lowerneck -9.10553 4.87378 -1.50303
upperneck 39.8386 6.37405 -4.8058
head 15.7692 0.852255 -1.09599
rclavicle -4.92986e-014 -2.06736e-014
rhumerus -35.6175 -1.5931 -82.9007
rradius 45.932
rwrist -1.58741
rhand -37.6308 14.7249
rfingers 7.12502
rthumb -10.6831 -14.9835
lclavicle -4.92986e-014 -2.06736e-014
lhumerus -35.7608 8.68876 83.59
lradius 46.0208
lwrist 9.4789
lhand -17.7654 25.6848
lfingers 7.12502
lthumb 8.4967 55.4939
rfemur -19.3569 7.85407 19.5385
rtibia 39.6826
rfoot -32.0557 -3.26752
rtoes -5.82383
lfemur -38.1033 -14.8913 -5.83335
ltibia 27.6755
lfoot -4.73702 -31.3733
ltoes 4.50009
3881
root 12.6525 17.6924 -9.73299 -350.321 -126.656 362.406
lowerback 4.85 1.97957 -0.258766
upperback 1.87908 2.56644 3.0381
thorax -0.936366 1.23461 3.12509
lowerneck -9.15609 4.78019 -1.52528
upperneck 39.7798 6.33358 -4.92358
head 15.7563 0.83263 -1.14276
rclavicle -5.42682e-014 3.4191e-014
rhumerus -35.5846 -1.29075 -82.7408
rradius 45.9581
rwrist -1.74919
rhand -37.4789 14.7118
rfingers 7.12502
rthumb -10.5366 -15.0041
lclavicle -5.42682e-014 3.4191e-014
lhumerus -35.8513 8.62865 83.8208
lradius 46.1654
lwrist 10.1643
lhand -18.4516 25.7916
lfingers 7.12502
lthumb 7.83452 55.6264
rfemur -19.5312 7.24241 19.6927
rtibia 39.7626
rfoot -31.9397 -3.37172
rtoes -4.6401
lfemur -38.2363 -14.3276 -6.3271
ltibia 27.387
lfoot -5.32716 -30.425
ltoes 1.15861
3882
root 12.7286 17.6981 -9.72001 -350.503 -125.56 362.456
lowerback 4.87868 1.92281 -0.0935821
upperback 1.89851 2.49489 3.16425
thorax -0.926779 1.19664 3.16637
lowerneck -9.16591 4.77835 -1.50817
upperneck 39.6865 6.45072 -5.14347
head 15.7289 0.870927 -1.21672
rclavicle -6.7388e-014 1.19271e-014
rhumerus -35.5595 -0.84778 -82.5834
rradius 45.9353
rwrist -1.71568
rhand -37.2842 14.9595
rfingers 7.12502
rthumb -10.3488 -14.7658
lclavicle -6.7388e-014 1.19271e-014
lhumerus -35.8911 9.23765 83.8317
lradius 45.9659
lwrist 9.89822
lhand -18.3878 25.3016
lfingers 7.12502
lthumb 7.89609 55.1342
rfemur -19.5328 6.51025 20.0267
rtibia 39.8173
rfoot -31.804 -3.7205
rtoes -4.89957
lfemur -38.1953 -13.5462 -6.87358
ltibia 27.3016
lfoot -6.19229 -29.2419
ltoes -2.12277
3883
root 12.8017 17.7105 -9.70716 -350.716 -124.47 362.467
lowerback 4.96088 1.91067 0.0837541
upperback 1.91757 2.48506 3.23295
thorax -0.94789 1.19043 3.13602
lowerneck -9.09363 4.6998 -1.46009
upperneck 39.5294 6.40664 -5.26414
head 15.6378 0.866424 -1.27607
rclavicle -1.59028e-015 -1.43125e-014
rhumerus -35.6522 -0.564076 -82.4204
rradius 46.0222
rwrist -1.68381
rhand -37.0804 14.8583
rfingers 7.12502
rthumb -10.1522 -14.8768
lclavicle -1.59028e-015 -1.43125e-014
lhumerus -36.0277 9.7265 83.8487
lradius 45.8988
lwrist 9.67647
lhand -17.7859 24.4814
lfingers 7.12502
lthumb 8.47693 54.2913
rfemur -19.4107 6.14588 20.3494
rtibia 39.8108
rfoot -31.6262 -4.54685
rtoes -5.61812
lfemur -38.048 -12.6872 -7.53806
ltibia 27.3823
lfoot -8.19532 -27.8817
ltoes -6.36638
3884
root 12.8731 17.7229 -9.69473 -350.869 -123.435 362.396
lowerback 4.99192 1.92617 0.146203
upperback 1.98447 2.50366 3.33272
thorax -0.899105 1.19685 3.20333
lowerneck -9.17641 4.63558 -1.48783
upperneck 39.4987 6.39939 -5.35396
head 15.6465 0.860565 -1.30527
rclavicle 1.23246e-014 -6.04305e-014
rhumerus -35.6312 -0.298497 -82.1556
rradius 46.1473
rwrist -1.75768
rhand -36.9724 14.5779
rfingers 7.12502
rthumb -10.048 -15.1622
lclavicle 1.23246e-014 -6.04305e-014
lhumerus -36.1219 10.1838 83.9136
lradius 45.8317
lwrist 9.20608
lhand -16.8306 23.845
lfingers 7.12502
lthumb 9.39884 53.6155
rfemur -19.3027 5.89859 20.6219
rtibia 39.8068
rfoot -31.6127 -5.69444
rtoes -6.47505
lfemur -37.9003 -11.9669 -8.17096
ltibia 27.61
lfoot -10.3105 -26.0444
ltoes -8.18719
3885
root 12.9408 17.7389 -9.68013 -350.9 -122.315 362.306
lowerback 4.83527 1.92315 0.253616
upperback 2.03643 2.49861 3.37734
thorax -0.755402 1.19274 3.19542
lowerneck -9.25105 4.60043 -1.33804
upperneck 39.4593 6.39856 -5.44946
head 15.6557 0.885486 -1.36682
rclavicle 3.18055e-015 -1.03368e-014
rhumerus -35.535 -0.295701 -81.9685
rradius 46.1195
rwrist -1.67835
rhand -37.1948 14.5884
rfingers 7.12502
rthumb -10.2626 -15.1413
lclavicle 3.18055e-015 -1.03368e-014
lhumerus -36.192 10.6352 83.7825
lradius 45.6769
lwrist 8.23806
lhand -15.5435 23.4411
lfingers 7.12502
lthumb 10.6405 53.1517
rfemur -19.2961 5.69497 20.8604
rtibia 39.8054
rfoot -31.7943 -6.9219
rtoes -7.02127
lfemur -37.8754 -11.6157 -8.61023
ltibia 27.9479
lfoot -12.5424 -23.6747
ltoes -10.0064
3886
root 13.0111 17.746 -9.65838 -350.697 -121.27 362.072
lowerback 4.70556 1.89268 0.289142
upperback 1.97971 2.46164 3.39581
thorax -0.738678 1.17592 3.19968
lowerneck -9.26772 4.55856 -1.36212
upperneck 39.414 6.35464 -5.36973
head 15.6288 0.88852 -1.32942
rclavicle 5.80451e-014 3.18055e-015
rhumerus -35.522 0.0277785 -81.8114
rradius 46.0681
rwrist -1.9012
rhand -37.2895 14.7599
rfingers 7.12502
rthumb -10.354 -14.9652
lclavicle 5.80451e-014 3.18055e-015
lhumerus -36.4125 10.6661 84.0031
lradius 45.865
lwrist 9.2936
lhand -16.9755 24.205
lfingers 7.12502
lthumb 9.25901 53.9817
rfemur -19.4675 5.59436 20.9527
rtibia 39.8829
rfoot -31.6617 -7.81054
rtoes -6.92605
lfemur -37.9604 -11.2359 -9.12751
ltibia 28.3609
lfoot -14.615 -20.9368
ltoes -13.1504
